<svg width="175.9" height="354" version="1.1" id="Ebene_1" xmlns="http://www.w3.org/2000/svg" xmlns:xlink="http://www.w3.org/1999/xlink" x="0px" y="0px" viewBox="0 0 175.9 354" style="enable-background:new 0 0 175.9 354" xml:space="preserve">
                                    <g fill="#DC3C05" class="hsh-logo--full">
                                        <path class="st0" d="M30,272.3c5.5,0,10.2-4.7,10.2-10.3V150.3h95.4V262c0,5.5,4.7,10.3,10.2,10.3h19.8c5.5,0,10.2-4.7,10.2-10.3
                                            V10.3c0-5.5-4.7-10.3-10.2-10.3h-19.8c-5.5,0-10.2,4.7-10.2,10.3v101.9H40.2V10.3C40.2,4.7,35.5,0,30,0H10.2C4.7,0,0,4.7,0,10.3V262
                                            c0,5.5,4.7,10.3,10.2,10.3H30z" fill="#DC3C05"></path>
                                        <path class="st0" d="M165.7,354c5.5,0,10.2-4.8,10.2-10.4v-20.1c0-5.6-4.7-10.4-10.2-10.4H10.2C4.7,313.2,0,318,0,323.5v20.1
                                            c0,5.6,4.7,10.4,10.2,10.4H165.7z" fill="#DC3C05"></path>
                                    </g>
                                </svg>